<svg width="512" height="512" viewBox="0 0 512 512" fill="none" xmlns="http://www.w3.org/2000/svg">
<mask id="mask0_2_5" style="mask-type:alpha" maskUnits="userSpaceOnUse" x="0" y="0" width="512" height="512">
<rect width="512" height="512" rx="128" fill="#ACD1AF"/>
</mask>
<g mask="url(#mask0_2_5)">
<rect width="512" height="512" fill="#ACD1AF"/>
<path d="M119.832 107.872C115.053 105.995 111.384 103.264 108.824 99.68C106.264 96.096 104.984 91.744 104.984 86.624C104.984 82.016 106.136 77.8773 108.44 74.208C110.744 70.4533 114.157 67.5093 118.68 65.376C123.288 63.1573 128.835 62.048 135.32 62.048C141.805 62.048 147.309 63.1573 151.832 65.376C156.44 67.5093 159.896 70.4533 162.2 74.208C164.589 77.8773 165.784 82.016 165.784 86.624C165.784 91.5733 164.461 95.9253 161.816 99.68C159.171 103.349 155.544 106.08 150.936 107.872C156.227 109.493 160.408 112.352 163.48 116.448C166.637 120.459 168.216 125.323 168.216 131.04C168.216 136.587 166.851 141.451 164.12 145.632C161.389 149.728 157.507 152.928 152.472 155.232C147.523 157.451 141.805 158.56 135.32 158.56C128.835 158.56 123.117 157.451 118.168 155.232C113.304 152.928 109.507 149.728 106.776 145.632C104.045 141.451 102.68 136.587 102.68 131.04C102.68 125.323 104.216 120.416 107.288 116.32C110.36 112.224 114.541 109.408 119.832 107.872ZM154.52 88.032C154.52 82.8267 152.813 78.816 149.4 76C145.987 73.184 141.293 71.776 135.32 71.776C129.432 71.776 124.781 73.184 121.368 76C117.955 78.816 116.248 82.8693 116.248 88.16C116.248 92.9387 117.997 96.7787 121.496 99.68C125.08 102.581 129.688 104.032 135.32 104.032C141.037 104.032 145.645 102.581 149.144 99.68C152.728 96.6933 154.52 92.8107 154.52 88.032ZM135.32 112.992C129.005 112.992 123.843 114.485 119.832 117.472C115.821 120.373 113.816 124.768 113.816 130.656C113.816 136.117 115.736 140.512 119.576 143.84C123.501 147.168 128.749 148.832 135.32 148.832C141.891 148.832 147.096 147.168 150.936 143.84C154.776 140.512 156.696 136.117 156.696 130.656C156.696 124.939 154.733 120.587 150.808 117.6C146.883 114.528 141.72 112.992 135.32 112.992ZM180.614 74.08V63.456H204.678V156H192.902V74.08H180.614Z" fill="#2E2E2E"/>
<path d="M249.224 253.056V290.32H198.632V444H152.12V290.32H101.528V253.056H249.224ZM319.079 242.72V444H272.567V242.72H319.079Z" fill="#2E2E2E"/>
</g>
</svg>
